<svg xmlns="http://www.w3.org/2000/svg" version="1.1" xmlns:xlink="http://www.w3.org/1999/xlink" width="512" height="512" x="0" y="0" viewBox="0 0 32 32" style="enable-background:new 0 0 512 512" xml:space="preserve"><g><path d="m13.984 22.022-.503-1.395a3.511 3.511 0 0 0-2.122-2.122l-1.396-.503c-.841-.301-1.413-1.108-1.416-2.009s.563-1.714 1.41-2.021l.34-.123-6.487-3.744-.001.01v11.767c0 .715.381 1.375 1 1.732L15 29.499v-6.335c-.457-.245-.833-.633-1.016-1.142zM28.189 10.106l-6.487 3.744.333.12a2.15 2.15 0 0 1 1.417 2.024 2.15 2.15 0 0 1-1.422 2.011l-1.388.501a3.514 3.514 0 0 0-2.124 2.122l-.502 1.395c-.183.508-.559.896-1.017 1.142V29.5l10.191-5.884a2 2 0 0 0 1-1.732V10.116c.001-.003-.001-.006-.001-.01zM13.481 11.346l.502-1.395c.306-.847 1.116-1.417 2.017-1.417s1.711.569 2.016 1.417l.503 1.395c.206.573.564 1.06 1.011 1.449l7.651-4.416L17 2.501a2.001 2.001 0 0 0-2 0L4.819 8.379l7.651 4.416a3.492 3.492 0 0 0 1.011-1.449z" fill="#ffffff" opacity="1" data-original="#000000"></path><path d="m19.963 16.624 1.395-.503a.143.143 0 0 0 0-.269l-1.395-.503a5.525 5.525 0 0 1-3.326-3.326l-.503-1.395a.143.143 0 0 0-.269 0l-.503 1.395a5.525 5.525 0 0 1-3.326 3.326l-1.395.503a.143.143 0 0 0 0 .269l1.395.503a5.525 5.525 0 0 1 3.326 3.326l.503 1.395a.143.143 0 0 0 .269 0l.503-1.395a5.525 5.525 0 0 1 3.326-3.326z" fill="#ffffff" opacity="1" data-original="#000000"></path></g></svg>