<svg xmlns="http://www.w3.org/2000/svg" version="1.1" xmlns:xlink="http://www.w3.org/1999/xlink" width="512" height="512" x="0" y="0" viewBox="0 0 511.954 511.954" style="enable-background:new 0 0 512 512" xml:space="preserve"><g><path d="M471.954 215.977c-16.753 0-31.124 10.357-37.071 25H271v30h163.883c5.947 14.643 20.318 25 37.071 25 22.056 0 40-17.944 40-40s-17.944-40-40-40zM356.853 127.123V82.056a39.787 39.787 0 0 0 13.285-8.795c15.595-15.596 15.595-40.973 0-56.569-15.596-15.596-40.973-15.596-56.568 0-7.555 7.555-11.715 17.6-11.715 28.285s4.161 20.729 11.716 28.285a39.764 39.764 0 0 0 13.284 8.794v21.563L271 117.387v30.897zM387.39 207.088l27.95-27.951a39.77 39.77 0 0 0 15.613 3.175c22.056 0 40-17.944 40-40s-17.944-40-40-40-40 17.944-40 40a39.783 39.783 0 0 0 3.174 15.612l-19.164 19.164H271v30zM326.853 408.335v21.563a39.784 39.784 0 0 0-13.285 8.794c-7.555 7.555-11.715 17.6-11.715 28.285s4.161 20.729 11.715 28.285c7.798 7.798 18.041 11.696 28.284 11.696s20.486-3.899 28.285-11.697c15.595-15.596 15.595-40.973 0-56.569a39.783 39.783 0 0 0-13.284-8.795v-45.066L271 363.67v30.897zM374.963 334.867l19.164 19.164a39.783 39.783 0 0 0-3.174 15.612c0 22.056 17.944 40 40 40s40-17.944 40-40-17.944-40-40-40a39.77 39.77 0 0 0-15.613 3.175l-27.95-27.951H271v30zM184.626 23.043l-.013-.002v.002c-31.075 0-56.356 25.281-56.356 56.356 0 15.477 6.147 29.91 17.311 40.639l-20.789 21.629c-15.229-14.638-24.346-33.78-26.165-54.543-23.976 6.473-41.674 28.402-41.674 54.396v50.525c0 23.729 19.306 43.035 43.035 43.035v30c-40.271 0-73.035-32.764-73.035-73.035v-4.782C11.203 193.313 0 208.579 0 226.42v59.114c0 23.125 18.813 41.939 41.939 41.939h15v42.959c0 25.995 17.698 47.924 41.674 54.396 1.819-20.762 10.935-39.905 26.165-54.543l20.789 21.629c-11.163 10.729-17.311 25.162-17.311 40.639 0 31.075 25.281 56.356 56.356 56.356v.003l.013-.003c31.067 0 56.343-25.275 56.343-56.343V79.387c.001-31.068-25.275-56.344-56.342-56.344z" fill="#ffffff" opacity="1" data-original="#000000"></path></g></svg>