<svg xmlns="http://www.w3.org/2000/svg" version="1.1" xmlns:xlink="http://www.w3.org/1999/xlink" width="512" height="512" x="0" y="0" viewBox="0 0 512 512" style="enable-background:new 0 0 512 512" xml:space="preserve"><g><path d="M116 296c0-30.328 24.672-55 55-55h170c13.785 0 25-11.215 25-25V75c0-41.355-33.645-75-75-75h-70c-41.355 0-75 33.645-75 75v41h110c8.285 0 15 6.715 15 15s-6.715 15-15 15H75c-41.355 0-75 33.645-75 75v70c0 41.355 33.645 75 75 75h41zM221 76c-8.285 0-15-6.715-15-15s6.715-15 15-15 15 6.715 15 15-6.715 15-15 15zm0 0" fill="#ffffff" opacity="1" data-original="#000000"></path><path d="M437 146h-41v70c0 30.328-24.672 55-55 55H171c-13.785 0-25 11.215-25 25v141c0 41.355 33.645 75 75 75h70c41.355 0 75-33.645 75-75v-41H256c-8.285 0-15-6.715-15-15s6.715-15 15-15h181c41.355 0 75-33.645 75-75v-70c0-41.355-33.645-75-75-75zM291 436c8.285 0 15 6.715 15 15s-6.715 15-15 15-15-6.715-15-15 6.715-15 15-15zm0 0" fill="#ffffff" opacity="1" data-original="#000000"></path></g></svg>