<svg xmlns="http://www.w3.org/2000/svg" version="1.1" xmlns:xlink="http://www.w3.org/1999/xlink" width="512" height="512" x="0" y="0" viewBox="0 0 512 512" style="enable-background:new 0 0 512 512" xml:space="preserve" class=""><g><path d="M255.941 60a75.041 75.041 0 0 0-31.183 6.84c-7.524 3.469-10.813 12.379-7.344 19.902 2.531 5.492 7.957 8.727 13.633 8.727 2.101 0 4.234-.446 6.27-1.383A44.806 44.806 0 0 1 255.94 90c6.422 0 12.641 1.355 18.48 4.02 7.532 3.44 16.438.125 19.876-7.415 3.441-7.535.121-16.433-7.414-19.875A74.011 74.011 0 0 0 255.94 60zM198.684 47.082A104.235 104.235 0 0 1 255.94 30c20.442 0 40.278 5.93 57.36 17.152a14.925 14.925 0 0 0 8.222 2.465c4.883 0 9.672-2.383 12.551-6.77 4.547-6.921 2.621-16.222-4.304-20.769C307.78 7.633 282.254 0 255.94 0c-26.25 0-51.734 7.602-73.699 21.988-6.93 4.54-8.867 13.836-4.328 20.766 4.54 6.93 13.84 8.867 20.77 4.328zM497 201h-15v90h15c8.285 0 15-6.715 15-15v-60c0-8.285-6.715-15-15-15zM377 126H135c-41.355 0-75 33.645-75 75v90c0 41.355 33.645 75 75 75h35.902c24.707 0 46.29-11.023 60.77-31.043 5.637-7.793 14.73-12.445 24.328-12.445s18.691 4.652 24.328 12.445c14.48 20.02 36.063 31.043 60.77 31.043H377c41.355 0 75-33.645 75-75v-90c0-41.355-33.645-75-75-75zm-257 60.121c-8.262 0-15-6.738-15-15s6.738-15 15-15 15 6.738 15 15-6.738 15-15 15zm60 0c-8.262 0-15-6.738-15-15s6.738-15 15-15 15 6.738 15 15-6.738 15-15 15zm60 0c-8.262 0-15-6.738-15-15s6.738-15 15-15 15 6.738 15 15-6.738 15-15 15zM0 216v60c0 8.285 6.715 15 15 15h15v-90H15c-8.285 0-15 6.715-15 15zm0 0" fill="#ffffff" opacity="1" data-original="#000000"></path></g></svg>