<svg xmlns="http://www.w3.org/2000/svg" version="1.1" xmlns:xlink="http://www.w3.org/1999/xlink" width="512" height="512" x="0" y="0" viewBox="0 0 512 512" style="enable-background:new 0 0 512 512" xml:space="preserve" class=""><g><path d="M467 0H45C20.186 0 0 20.186 0 45v75h512V45c0-24.814-20.186-45-45-45zM105 90H75c-8.291 0-15-6.709-15-15s6.709-15 15-15h30c8.291 0 15 6.709 15 15s-6.709 15-15 15zm90 0h-30c-8.291 0-15-6.709-15-15s6.709-15 15-15h30c8.291 0 15 6.709 15 15s-6.709 15-15 15zm90 0h-30c-8.291 0-15-6.709-15-15s6.709-15 15-15h30c8.291 0 15 6.709 15 15s-6.709 15-15 15zM0 150v317c0 24.814 20.186 45 45 45h422c24.814 0 45-20.186 45-45V150H0zm177.606 236.606c-5.86 5.859-15.351 5.859-21.211 0l-60-60c-5.86-5.86-5.86-15.352 0-21.211l60-60c5.859-5.859 15.352-5.859 21.211 0 5.859 5.859 5.859 15.352 0 21.211L128.211 316l49.395 49.395c5.859 5.859 5.859 15.352 0 21.211zm123.618-155.86-60 180c-2.603 7.81-11.064 12.113-18.97 9.478-7.852-2.608-12.1-11.104-9.478-18.97l60-180c2.607-7.837 11.03-12.144 18.97-9.478 7.852 2.607 12.1 11.104 9.478 18.97zm116.382 95.859-60 60c-5.86 5.859-15.351 5.859-21.211 0-5.859-5.859-5.859-15.352 0-21.211L385.789 316l-49.394-49.395c-5.859-5.859-5.859-15.352 0-21.211 5.859-5.859 15.352-5.859 21.211 0l60 60c5.859 5.859 5.859 15.352 0 21.211z" fill="#ffffff" opacity="1" data-original="#000000" class=""></path></g></svg>